<svg xmlns="http://www.w3.org/2000/svg" width="42" height="42" viewBox="0 0 42 42"><defs><style>.a{fill:#fafbfc;}.b{fill:#24292e;}</style></defs><g transform="translate(-88.312 -88.312)"><path class="a" d="M185.972,187.442l.031-.1c.188-.629.351-1.2.494-1.753a20.951,20.951,0,1,0-4.377,3.555,4.946,4.946,0,0,0,.374.4,5.476,5.476,0,0,0,1.013.728,6.351,6.351,0,0,0,1.129.525,2.994,2.994,0,0,0,.627.148,1.939,1.939,0,0,0,.236.015,1.3,1.3,0,0,0,.442-.072.922.922,0,0,0,.535-.491,1.811,1.811,0,0,0,.18-.635,2.92,2.92,0,0,0-.176-1.265A4.963,4.963,0,0,0,185.972,187.442Z" transform="translate(-61.888 -61.888)"/><path class="b" d="M295.745,295.565c-.175.655-.305,1.236-.395,1.68l.018-.026a23.7,23.7,0,0,1,2.031-2.392,19.093,19.093,0,0,1,5.054-3.789,14.829,14.829,0,0,1,3.012-1.115,14.39,14.39,0,0,1,3.207-.428c.545-.008,1.069.01,1.61.048q.238.018.477.047c-4.1-2.04-9.338-2.617-11.635-.626C297.379,290.471,296.316,293.42,295.745,295.565Z" transform="translate(-195.953 -188.917)"/><path class="b" d="M293.821,476.51c.27,1.847,1.533,4.712,6.855,5.065,3.86.257,6.129-.82,7.4-1.864a11.525,11.525,0,0,1-2.618.305q-.8,0-1.591-.068a12.734,12.734,0,0,1-1.577-.237,16.663,16.663,0,0,1-5.767-2.454,15.5,15.5,0,0,1-2.409-1.991q-.132-.138-.261-.28l-.063-.076q-.011.095-.018.2A6.615,6.615,0,0,0,293.821,476.51Z" transform="translate(-194.48 -361.802)"/><path class="b" d="M223.076,385.029v0a.047.047,0,0,1,0-.035,19.283,19.283,0,0,1,.993-1.671c-1.022-1.527-3.013-3.284-4.851-3.416-.332-.024-.394.028-.275.481a16.226,16.226,0,0,1,0,9.345c-.119.453-.057.5.275.481,1.9-.136,3.976-2.021,4.959-3.583a12.948,12.948,0,0,1-1.1-1.588S223.077,385.033,223.076,385.029Z" transform="translate(-125.33 -274.045)"/><path class="b" d="M302.934,331.673a21.124,21.124,0,0,0-1.145-3.882,18.781,18.781,0,0,0-.911-1.936,13.654,13.654,0,0,0-3.992-4.652,8.136,8.136,0,0,0-2.783-1.272c-.221-.057-.444-.1-.669-.14a15.847,15.847,0,0,0-2.4-.192,13.787,13.787,0,0,0-3.069.341,14.431,14.431,0,0,0-2.922,1.006A18.7,18.7,0,0,0,280,324.5a23.8,23.8,0,0,0-2.083,2.3,21.476,21.476,0,0,0-1.743,2.525,13.281,13.281,0,0,0,1.94,2.333,15.4,15.4,0,0,0,2.424,1.877,16.3,16.3,0,0,0,5.69,2.215,15.174,15.174,0,0,0,3.055.221,10.4,10.4,0,0,0,3.01-.5,5.752,5.752,0,0,0,2.527-1.637,4.725,4.725,0,0,0,1.138-2.758h0a4.843,4.843,0,0,1-.958.562,4.473,4.473,0,0,1-1.174.322,3.936,3.936,0,0,1-.607.037l-.305-.007c-.1-.008-.2-.025-.305-.037l-.153-.02c-.05-.008-.1-.023-.148-.035l-.3-.076a4.01,4.01,0,0,1-.569-.229,4.222,4.222,0,0,1-.529-.305c-.083-.058-.16-.124-.241-.188l-.12-.095-.107-.1a4.221,4.221,0,0,1-.755-.955,4.549,4.549,0,0,1-.474-1.12,5.233,5.233,0,0,1-.168-1.2.031.031,0,0,1,.061-.011l.005.01a9.246,9.246,0,0,0,.447,1.106c.035.087.089.168.131.251a1.949,1.949,0,0,0,.141.241c.053.076.1.157.147.234s.11.147.163.22a1.875,1.875,0,0,0,.173.208c.062.065.108.14.173.2l.186.188c.061.062.134.111.2.17a3.875,3.875,0,0,0,.86.556,3.937,3.937,0,0,0,.471.2,4.757,4.757,0,0,0,.5.13c.085.017.17.04.257.053l.263.027c.088.011.178.013.268.017s.181.01.271.008a6.473,6.473,0,0,0,2.206-.458l.081.034.015.006a4.257,4.257,0,0,1,1.386.954,6.033,6.033,0,0,1,.983,1.362,11.517,11.517,0,0,1,1.075,3.159,22.081,22.081,0,0,1,.393,3.314,27.319,27.319,0,0,1-.047,3.336l-.012.153-.126-.091a1.02,1.02,0,0,0-.458-.163,1.087,1.087,0,0,0-.49.052.981.981,0,0,0-.4.273,1.345,1.345,0,0,0-.241.429,1.5,1.5,0,0,0,.189,1.1,3.761,3.761,0,0,0,.734.916,5.172,5.172,0,0,0,.963.687,6.169,6.169,0,0,0,1.077.5,2.712,2.712,0,0,0,.569.134,1.194,1.194,0,0,0,.552-.041.648.648,0,0,0,.382-.349,1.548,1.548,0,0,0,.153-.544,2.692,2.692,0,0,0-.163-1.145,4.7,4.7,0,0,0-.526-1.052l-.027-.042.013-.044c.018-.06.037-.12.055-.182.278-.932.544-1.865.744-2.813a20.9,20.9,0,0,0,.409-3.066A24.291,24.291,0,0,0,302.934,331.673ZM300.9,346.147c-.283.535-2.467-1.247-2.176-1.56C299.175,344.208,301.182,345.7,300.9,346.147Z" transform="translate(-178.238 -218.351)"/></g></svg>