<svg xmlns="http://www.w3.org/2000/svg" width="65" height="65" viewBox="0 0 65 65"><defs><style>.a{fill:#24292e;}.b{fill:#fafbfc;}</style></defs><g transform="translate(-150.2 -150.2)"><path class="a" d="M205.561,207.836l.048-.161c.291-.974.544-1.855.765-2.712a32.425,32.425,0,1,0-6.774,5.5,7.662,7.662,0,0,0,.579.615,8.477,8.477,0,0,0,1.567,1.126,9.828,9.828,0,0,0,1.748.812,4.637,4.637,0,0,0,.97.229,3.007,3.007,0,0,0,.365.024,2.009,2.009,0,0,0,.684-.111,1.426,1.426,0,0,0,.827-.76,2.8,2.8,0,0,0,.279-.982,4.52,4.52,0,0,0-.273-1.957A7.682,7.682,0,0,0,205.561,207.836Z"/><path class="b" d="M295.961,299.855c-.271,1.014-.473,1.912-.611,2.6l.028-.04a36.676,36.676,0,0,1,3.144-3.7,29.55,29.55,0,0,1,7.821-5.864A22.95,22.95,0,0,1,311,291.123a22.268,22.268,0,0,1,4.964-.662c.844-.013,1.655.015,2.491.074q.369.028.737.072c-6.351-3.157-14.451-4.05-18.006-.969C298.49,291.971,296.845,296.534,295.961,299.855Z" transform="translate(-127.996 -121.278)"/><path class="b" d="M293.857,477.386c.418,2.859,2.373,7.293,10.609,7.839,5.974.4,9.485-1.269,11.452-2.885a17.837,17.837,0,0,1-4.052.473q-1.241,0-2.462-.105a19.7,19.7,0,0,1-2.44-.366,25.788,25.788,0,0,1-8.925-3.8,23.986,23.986,0,0,1-3.729-3.081q-.2-.214-.4-.434l-.1-.118q-.018.147-.028.312A10.243,10.243,0,0,0,293.857,477.386Z" transform="translate(-126.59 -286.335)"/><path class="b" d="M225.37,387.839v-.007a.072.072,0,0,1,0-.054,29.837,29.837,0,0,1,1.536-2.586c-1.581-2.364-4.663-5.082-7.507-5.286-.514-.037-.61.044-.425.745a25.111,25.111,0,0,1,0,14.462c-.184.7-.089.781.425.745,2.947-.21,6.154-3.127,7.675-5.545a20.038,20.038,0,0,1-1.707-2.457S225.372,387.844,225.37,387.839Z" transform="translate(-60.57 -202.552)"/><path class="b" d="M317.59,338.284a32.685,32.685,0,0,0-1.773-6.007,29.082,29.082,0,0,0-1.41-3,21.133,21.133,0,0,0-6.177-7.2,12.592,12.592,0,0,0-4.308-1.969c-.343-.087-.687-.157-1.035-.216a24.518,24.518,0,0,0-3.712-.3,21.34,21.34,0,0,0-4.75.528,22.335,22.335,0,0,0-4.522,1.558,28.939,28.939,0,0,0-7.812,5.492,36.851,36.851,0,0,0-3.224,3.555,33.232,33.232,0,0,0-2.7,3.908,20.55,20.55,0,0,0,3,3.61,23.833,23.833,0,0,0,3.751,2.9,25.228,25.228,0,0,0,8.806,3.427,23.486,23.486,0,0,0,4.727.343,16.1,16.1,0,0,0,4.658-.778,8.9,8.9,0,0,0,3.911-2.534,7.312,7.312,0,0,0,1.761-4.269h0a7.5,7.5,0,0,1-1.483.87,6.925,6.925,0,0,1-1.818.5,6.1,6.1,0,0,1-.94.057l-.473-.011c-.157-.013-.314-.039-.473-.057l-.236-.031c-.077-.013-.151-.035-.229-.054l-.461-.118a6.2,6.2,0,0,1-.88-.355,6.532,6.532,0,0,1-.819-.473c-.129-.09-.247-.193-.372-.291l-.186-.147-.165-.156a6.534,6.534,0,0,1-1.169-1.477,7.035,7.035,0,0,1-.734-1.733,8.094,8.094,0,0,1-.26-1.859.048.048,0,0,1,.095-.018l.008.015a14.308,14.308,0,0,0,.693,1.711c.054.135.137.26.2.389a3.022,3.022,0,0,0,.219.373c.083.118.155.242.227.363s.17.227.253.34a2.887,2.887,0,0,0,.267.321c.1.1.168.216.268.312l.288.291c.095.1.208.173.308.262a6,6,0,0,0,1.331.86,6.094,6.094,0,0,0,.729.308,7.349,7.349,0,0,0,.769.2c.131.026.263.063.4.083l.407.041c.136.018.275.02.415.026s.28.015.42.012a10.019,10.019,0,0,0,3.414-.709l.125.052.024.009a6.588,6.588,0,0,1,2.145,1.476,9.335,9.335,0,0,1,1.521,2.108,17.821,17.821,0,0,1,1.664,4.889,34.183,34.183,0,0,1,.607,5.129,42.283,42.283,0,0,1-.072,5.162l-.019.236-.2-.141a1.579,1.579,0,0,0-.709-.253,1.683,1.683,0,0,0-.759.08,1.519,1.519,0,0,0-.626.422,2.082,2.082,0,0,0-.372.664,2.322,2.322,0,0,0,.293,1.7,5.817,5.817,0,0,0,1.136,1.418,8.006,8.006,0,0,0,1.49,1.064,9.557,9.557,0,0,0,1.666.775,4.2,4.2,0,0,0,.88.208,1.848,1.848,0,0,0,.854-.064,1,1,0,0,0,.591-.54,2.4,2.4,0,0,0,.236-.843,4.165,4.165,0,0,0-.252-1.773,7.27,7.27,0,0,0-.814-1.627l-.041-.065.02-.069c.028-.093.057-.186.085-.281.43-1.442.843-2.886,1.151-4.354a32.349,32.349,0,0,0,.633-4.745A37.6,37.6,0,0,0,317.59,338.284Zm-3.15,22.4c-.438.827-3.817-1.93-3.367-2.414C311.772,357.684,314.879,360,314.441,360.685Z" transform="translate(-111.083 -149.38)"/></g></svg>