<svg xmlns="http://www.w3.org/2000/svg" viewBox="0 0 2819.3 2819.3"><defs><style>.cls-1{fill:#24292E;}.cls-2{fill:#fff;}</style></defs><g id="Warrant_Canary" data-name="Warrant_Canary"><circle class="cls-1" cx="1409.65" cy="1409.65" r="1409.65"/></g><g id="Warrant_Canary_6" data-name="Warrant_Canary"><g id="Warrant_Canary_2_copy" data-name="Warrant_Canary"><path class="cls-2" d="M1028.94,980.74c99.94,15.31,238.26,14.28,329.68-77.63l1.77-1.78h11.52l1.77,1.78c91.48,92,229.92,92.95,330,77.59,53.49-8.22,101.95-21.84,137.57-33.64-7.13-12.88-36.86-64-88.69-120.35-54.38-59.09-144.86-136-268.06-168.68L1448.8,843H1283.5l-36.3-188.38C1121,684.87,1031,763.6,977.48,824.78,929.7,879.42,901.8,930,892.78,947.61,928.3,959.3,976.21,972.66,1028.94,980.74Z" transform="translate(-90.35 -98.76)"/><path class="cls-2" d="M1896.78,926.47c-1.45-3.48-4.51-8.73-10.89-14.06-9.54-8-28.3-17.33-64.21-18.79,17.89,25.65,28.31,44.28,31.14,49.51C1874,935.79,1889.35,929.58,1896.78,926.47Z" transform="translate(-90.35 -98.76)"/><path class="cls-2" d="M1438.82,830.94l96.24-499.43a19.9,19.9,0,0,0-19.17-23.67h-299.1a19.91,19.91,0,0,0-19.55,23.68l96.24,499.43ZM1244,535l12.06-.79a1.9,1.9,0,0,0,0-.28c0,.29,6.2,29.38,115.26,29.38,77.34,0,97.62-12.93,102.75-18.49,2.32-2.51,2.22-4.14,2.21-4.21a1.65,1.65,0,0,0,.1.45l11.66-3.17c.29,1.07,1.48,6.72-3.6,13.36-12.25,16-50.31,24.14-113.12,24.14C1250.11,575.43,1244.26,539.17,1244,535Z" transform="translate(-90.35 -98.76)"/><path class="cls-2" d="M876.79,1460.46c1.23,78.17,11,130.58,11.06,131.1l2.43,12.87-90.64-69.63a182.32,182.32,0,0,1-27.4-28q5.64,21.92,12.9,43.14c0,.15,0,.32,0,.48C833.9,1694.63,936,1800.27,1013.84,1864c84.64,69.21,163.24,107,181.18,110.5-15.58-40.85-32.61-76.48-44.58-95.62l-.07-.12c-55.64-94.54-81.49-195.83-93.38-264.16-12.88-74-12.61-126.54-12.6-127.06l10,.08c0,.52-.26,52.31,12.49,125.5,11.75,67.44,37.26,167.36,92.07,260.51,15.1,24.16,45.3,86.77,66.75,160.51,17.4,59.81,33.1,142.51,9.11,196.83-13.11,29.69-36.57,47.83-69.73,53.93a45.78,45.78,0,0,1-11.44,1.27c-12.61,0-30.43-3.66-47.71-14.92-20-13-45.6-40.65-55.36-98.29-44.78,1.17-79.37-9.25-100-30.17-15.1-15.28-22.25-35.56-21.23-60.27l10,.41c-.91,21.83,5.27,39.6,18.34,52.83,18.85,19.06,51.24,28.45,93.69,27.18h.15c50.59,0,102.3-7.14,102.3-60.11.22-48.48-17-86-51.11-111.66-25.65-19.25-51.83-24.24-52.09-24.29l-.41-.09c-.55-.15-56.07-14.56-107.64,18.25-42.61,27.11-70.76,78-83.67,151.35-3.85,25.34-2.45,71.69,13,125.85,12,42,36.77,103.27,87,156.8,81.07,86.38,198.25,123.5,348.31,110.35,100.61-16.12,178-65.09,230.1-145.55,99-153,83.08-377.6,63.2-483.56q-19-63.95-33.84-135.37c-52.73-253.84-47.1-492.25-47-494.63l.4-15,10.12,11.15c.3.33,31.21,34,86.79,67.22,48.27,28.85,125,62.9,222.35,66.67,11.72-24.63-5.62-181.46-25.22-231.34l-2.45,1.2q-26.36,12.84-55.08,23.89a150.91,150.91,0,0,1,4.44,37.12c0,42.38-15.92,76.73-35.55,76.73s-35.56-34.35-35.56-76.73c0-5.12.25-10.12.69-15q-27,7.83-55.46,14.24c-80.91,18.14-170.59,27.34-266.56,27.34h-4.66c-96,0-185.65-9.2-266.56-27.34q-33.26-7.45-64.52-16.92a162.38,162.38,0,0,1,1,17.64c0,42.38-15.92,76.73-35.56,76.73s-35.55-34.35-35.55-76.73a147.88,147.88,0,0,1,5.29-40.23q-23.13-9.22-44.73-19.62l-.18.47c-2.1-1-4.17-2.13-6.25-3.21C881.7,1279.77,875.67,1388.63,876.79,1460.46Zm202.07,622.61c5.84-26.34,16.88-46.3,24.67-44.57s9.38,24.48,3.54,50.82-16.88,46.3-24.67,44.57S1073,2109.41,1078.86,2083.07Zm-77.75-62.32c10.44-2.31,24.22,19.84,30.79,49.48s3.42,55.55-7,57.86-24.22-19.85-30.79-49.49S990.68,2023.06,1001.11,2020.75Z" transform="translate(-90.35 -98.76)"/><path class="cls-2" d="M569.15,1431.56l2.89-11.7,168.7,41.72c-6.07-16.28-10.58-28.19-10.58-28.19-.75-.9-66.31-79.92-119.59-91-21.51-4.45-44.05-6.49-63.19,8.52-30.57,24-47.32,87.54-51.2,194.31-2.67,73.56.45,134.08,9.27,179.85,8.21,42.57,21.35,72.7,39.07,89.57,12.83,12.21,27.71,17.4,45.52,15.88,16.31-1.4,39.27-18.87,64.67-49.18,58.81-70.21,119.09-194.63,115.18-237.73l.42,0c-4.84-15.07-16.61-47.2-26.17-72.91l-1,3.89Zm156.12,80.37,5,11-159.06,73-5-11Zm-151.92,262-9.26-7.71L723.16,1575.3l9.26,7.72Z" transform="translate(-90.35 -98.76)"/><path class="cls-2" d="M743.36,1429.74c8.93,28.3,27,68.14,62.56,97.28L876,1580.85c-3-20.22-8.29-63.47-9.19-120-1.16-72.86,5-183.44,40.73-296.46l4.77,1.51h0c-51.48-26-107.26-73.54-125.35-89.57l-.39,1.65c-.65-.61-1.32-1.2-2-1.78-10.12,38.19-52.2,202.7-52.24,298.22C732.42,1376.18,733.92,1399.87,743.36,1429.74Z" transform="translate(-90.35 -98.76)"/><path class="cls-2" d="M1852.36,1400.53c1.38,0,2.75,0,4.13,0,37.61-6.41,108-79.67,140.25-115.12-21.35-84-43.09-178-53.41-200-16.48,15.17-65.74,50.81-118.51,78C1845.1,1214.69,1864.33,1373.74,1852.36,1400.53Z" transform="translate(-90.35 -98.76)"/><path class="cls-2" d="M2455.46,1343.36c-27.28,20.19-60.36,36.26-98.3,47.76-47.17,14.3-102.08,21.55-163.21,21.55l-.76-.05c-51.06-6.5-151.74-109.09-174.8-133.22-21.31,24.39-112.23,125.62-160.47,133.19l-.47.08H1857c-108.69,0-194.15-37.51-246.69-69-38.63-23.13-65.26-46.07-78.81-58.88-.31,55,1.89,260.74,47,477.8,25.34,121.93,67.33,260.66,136.74,376.08,62.65,104.16,297,243.61,302.87,245.16,5.54-1.63,226.73-126,296.53-245.6,56.16-96.22,101.22-220.63,133.93-369.78,45.66-208.21,54.2-407.57,55.79-474.47C2495.15,1307.36,2479.8,1325.35,2455.46,1343.36Z" transform="translate(-90.35 -98.76)"/><path class="cls-2" d="M910.4,893.62c-35.92,1.46-54.68,10.83-64.22,18.79a37.49,37.49,0,0,0-10.86,14c7.55,3.17,23.64,9.68,45.88,17.33A560.14,560.14,0,0,1,910.4,893.62Z" transform="translate(-90.35 -98.76)"/><path class="cls-2" d="M1940.61,1071.11l-40.74-132.88c-23,9.56-101.3,40.07-194.41,54.38-65.19,10-124.87,10.27-177.38.76-65.12-11.79-119.33-38.7-161.16-80h-1.54c-41.83,41.29-96,68.2-161.15,80-52.51,9.51-112.19,9.26-177.39-.76-93.11-14.31-171.39-44.82-194.41-54.38l-41.62,121.22c8.67,9.19,59.58,63.1,136,100.19,80.87,39.24,222.33,86,437,86h4.66c214.66,0,356.12-46.77,437-86C1881.9,1122.56,1931.93,1080.3,1940.61,1071.11Z" transform="translate(-90.35 -98.76)"/><path d="M1484.4,551.29c5.08-6.64,3.89-12.29,3.6-13.36l-11.66,3.17a1.65,1.65,0,0,1-.1-.45c0,.07.11,1.7-2.21,4.21-5.13,5.56-25.41,18.49-102.75,18.49-109.06,0-115.21-29.09-115.26-29.38a1.9,1.9,0,0,1,0,.28L1244,535c.27,4.13,6.12,40.39,127.29,40.39C1434.09,575.43,1472.15,567.31,1484.4,551.29Z" transform="translate(-90.35 -98.76)"/><rect x="524.02" y="1668.57" width="248.46" height="12.05" transform="translate(-1143.57 1001.82) rotate(-50.2)"/><rect x="560.75" y="1547.87" width="175.01" height="12.05" transform="translate(-679.32 313.16) rotate(-24.65)"/><path d="M572,1419.86l-2.89,11.7,174,43,1-3.89-3.4-9.13Z" transform="translate(-90.35 -98.76)"/><path d="M782,1541q1.51,4.74,3.1,9.41c0-.16,0-.33,0-.48q-7.25-21.23-12.9-43.14a217.61,217.61,0,0,1-26.37-43.08l-1.73,7c9.56,25.71,21.33,57.84,26.17,72.91l-.42,0c3.91,43.1-56.37,167.52-115.18,237.73-25.4,30.31-48.36,47.78-64.67,49.18-17.81,1.52-32.69-3.67-45.52-15.88-17.72-16.87-30.86-47-39.07-89.57-8.82-45.77-11.94-106.29-9.27-179.85,3.88-106.77,20.63-170.32,51.2-194.31,19.14-15,41.68-13,63.19-8.52,53.28,11,118.84,90,119.59,91,0,0,4.51,11.91,10.58,28.19l4.66,1.15a255,255,0,0,1-11.67-30.26c-2.34-7.43-4.19-14.44-5.68-20.86-5-4.61-8.77-8.58-8.8-8.17-28-28.14-70.63-65.43-106.24-72.8-23.19-4.8-50-7.26-73.07,10.84-34,26.67-51.73,91.29-55.8,203.35-5.35,146.88,12.17,240.61,52.07,278.59,13.58,12.93,29.69,19.45,48,19.45q3.38,0,6.87-.29c20.09-1.73,44.61-19.71,72.88-53.45,51.91-62,103.18-161.86,115.41-219.42.14.39.66-.36,1.32-1.83q-4.32-11.73-8.19-23.81Z" transform="translate(-90.35 -98.76)"/><path d="M740.74,1461.58l3.4,9.13,1.73-7c-.16-.34-.32-.67-.47-1Z" transform="translate(-90.35 -98.76)"/><path d="M775.83,1069.86l0,.11.05,0,.33-1.23Z" transform="translate(-90.35 -98.76)"/><path d="M2505.1,1268.26c-.12.32-12.74,32.77-56.83,65.39-41.22,30.5-118.73,66.86-253.92,66.93-52.55-7.2-170.56-133-171.75-134.31l-4.62-5-4.4,5.15c-.16.19-2.75,3.22-7.19,8.23-23.48-88.19-52.74-200.15-52.74-200.15l-45-153.3-.81.36c-5.68-13.42-25.68-40-94.86-40.23a720.53,720.53,0,0,0-51.29-62.58C1726,780,1687.18,746.45,1646.26,719c-50.33-33.75-104-58.25-159.52-72.87l60.19-312.34a32,32,0,0,0-31.42-38l-301.22.09a32,32,0,0,0-28.91,38l59.54,309c-56.69,13.5-110.94,37.5-161.3,71.44-41.38,27.9-80.24,62.51-115.49,102.88a675.31,675.31,0,0,0-49.6,64.26c-68.55.42-88.52,26.74-94.24,40.15l-.61-.28-1.11,5.27c-.27,1-.4,1.81-.47,2.25l-44.85,136.75,9.47,2.62c-.06.22-.84,3.06-2.16,8.06.68.58,1.35,1.17,2,1.78l.39-1.65c18.09,16,73.87,63.57,125.35,89.57h0l4.77,1.5c-.12.37-.23.74-.34,1.1,2.08,1.08,4.15,2.17,6.25,3.21l.18-.47q21.58,10.4,44.73,19.62a147.88,147.88,0,0,0-5.29,40.23c0,42.38,15.92,76.73,35.55,76.73s35.56-34.35,35.56-76.73a162.38,162.38,0,0,0-1-17.64q31.24,9.43,64.52,16.92c80.91,18.14,170.59,27.34,266.56,27.34h4.66c96,0,185.65-9.2,266.56-27.34q28.45-6.39,55.46-14.24c-.44,4.84-.69,9.84-.69,15,0,42.38,15.92,76.73,35.56,76.73s35.55-34.35,35.55-76.73a150.91,150.91,0,0,0-4.44-37.12q28.66-11.06,55.08-23.89l2.45-1.2c19.6,49.88,36.94,206.71,25.22,231.34-97.3-3.77-174.08-37.82-222.35-66.67-55.58-33.21-86.49-66.89-86.79-67.22L1520,1255.18l-.4,15c-.06,2.38-5.69,240.79,47,494.63q14.84,71.39,33.84,135.37c-2.71-14.46-5.5-26.72-8.08-36.28l9.66-2.6c5.16,19.14,12,53.18,16.89,96.5q12.72,36.8,26.93,70.69l11.49,26.36a889.4,889.4,0,0,0,42.59,82.84c71.88,122.73,315.63,258,316.86,258.25l1.47.35,1.46-.38c1.14-.3,234.34-129.93,305.39-251.7,56.81-97.34,102.33-223,135.3-373.4,56-255.7,56.39-498.06,56.39-500.48l0-33ZM1885.89,912.41c6.38,5.33,9.44,10.58,10.89,14.06-7.43,3.11-22.79,9.32-44,16.66-2.83-5.23-13.25-23.86-31.14-49.51C1857.59,895.08,1876.35,904.45,1885.89,912.41Zm-688.65-580.9a19.91,19.91,0,0,1,19.55-23.68h299.1a19.9,19.9,0,0,1,19.17,23.67l-96.24,499.43H1293.48ZM977.48,824.78C1031,763.6,1121,684.87,1247.2,654.65L1283.5,843h165.3l35.65-185c123.2,32.69,213.68,109.59,268.06,168.68,51.83,56.32,81.56,107.47,88.69,120.35-35.62,11.8-84.08,25.42-137.57,33.64-100,15.36-238.47,14.38-330-77.59l-1.77-1.78h-11.52l-1.77,1.78c-91.42,91.91-229.74,92.94-329.68,77.63-52.73-8.08-100.64-21.44-136.16-33.13C901.8,930,929.7,879.42,977.48,824.78Zm-131.3,87.63c9.54-8,28.3-17.33,64.22-18.79a560.14,560.14,0,0,0-29.2,50.09c-22.24-7.65-38.33-14.16-45.88-17.33A37.49,37.49,0,0,1,846.18,912.41Zm959.29,247.23c-80.87,39.24-222.33,86-437,86h-4.66c-214.66,0-356.12-46.77-437-86-76.44-37.09-127.35-91-136-100.19l41.62-121.22c23,9.56,101.3,40.07,194.41,54.38,65.2,10,124.88,10.27,177.39.76,65.11-11.79,119.32-38.7,161.15-80h1.54c41.83,41.29,96,68.2,161.16,80,52.51,9.51,112.19,9.26,177.38-.76,93.11-14.31,171.39-44.82,194.41-54.38l40.74,132.88C1931.93,1080.3,1881.9,1122.56,1805.47,1159.64Zm19.35,3.8c52.77-27.22,102-62.86,118.51-78,10.32,22,32.06,116.09,53.41,200-32.2,35.45-102.64,108.71-140.25,115.12-1.38,0-2.75,0-4.13,0C1864.33,1373.74,1845.1,1214.69,1824.82,1163.44Zm623.74,605c-32.71,149.15-77.77,273.56-133.93,369.78-69.8,119.57-291,244-296.53,245.6-5.88-1.55-240.22-141-302.87-245.16-69.41-115.42-111.4-254.15-136.74-376.08-45.12-217.06-47.32-422.83-47-477.8,13.55,12.81,40.18,35.75,78.81,58.88,52.54,31.47,138,69,246.69,69h.47l.47-.08c48.24-7.57,139.16-108.8,160.47-133.19,23.06,24.13,123.74,126.72,174.8,133.22l.76.05c61.13,0,116-7.25,163.21-21.55,37.94-11.5,71-27.57,98.3-47.76,24.34-18,39.69-36,48.89-49.36C2502.76,1360.9,2494.22,1560.26,2448.56,1768.47Z" transform="translate(-90.35 -98.76)"/><path d="M1050.57,2172.91c9.76,57.64,35.31,85.24,55.36,98.29,17.28,11.26,35.1,14.92,47.71,14.92a45.78,45.78,0,0,0,11.44-1.27c33.16-6.1,56.62-24.24,69.73-53.93,24-54.32,8.29-137-9.11-196.83-21.45-73.74-51.65-136.35-66.75-160.51-54.81-93.15-80.32-193.07-92.07-260.51-12.75-73.19-12.5-125-12.49-125.5l-10-.08c0,.52-.28,53,12.6,127.06,11.89,68.33,37.74,169.62,93.38,264.16l.07.12c12,19.14,29,54.77,44.58,95.62a12.61,12.61,0,0,0,2.24.26v5.66c6.81,18.25,13.28,37.4,18.83,56.51,16.94,58.21,32.34,138.43,9.57,190-11.72,26.54-32.78,42.74-62.59,48.17l-.44.1c-5.88,1.63-27.91,2.87-51.25-12.33-25.78-16.79-43.22-47.84-50.68-90q-4.6.09-9.16.09Z" transform="translate(-90.35 -98.76)"/><path d="M1537.25,2383.79c-52.08,80.46-129.49,129.43-230.1,145.55-150.06,13.15-267.24-24-348.31-110.35-50.24-53.53-75.05-114.82-87-156.8-15.43-54.16-16.83-100.51-13-125.85C871.76,2063,899.91,2012.1,942.52,1985c51.57-32.81,107.09-18.4,107.64-18.25l.41.09c.26.05,26.44,5,52.09,24.29,34.14,25.62,51.33,63.18,51.11,111.66,0,53-51.71,60.11-102.3,60.11h-.15c-42.45,1.27-74.84-8.12-93.69-27.18-13.07-13.23-19.25-31-18.34-52.83l-10-.41c-1,24.71,6.13,45,21.23,60.27,20.68,20.92,55.27,31.34,100,30.17q-.48-2.79-.9-5.67l9.89-1.45c.35,2.37.74,4.7,1.14,7,49.87-1,103.07-11.51,103.07-70,.3-64.72-30-101-55.45-119.94-26.56-19.8-52.9-25.28-55.74-25.83-4.46-1.17-61-15-115.29,19.44-45.16,28.66-74.87,81.89-88.3,158.19l0,.12c-4,26.37-2.64,74.41,13.24,130.15,12.27,43.05,37.73,105.91,89.34,160.91,38.2,40.69,85.12,71.15,139.47,90.54,47.57,17,101.11,25.49,159.75,25.49q27.95,0,57.43-2.59l.35,0c103.61-16.56,183.38-67,237.09-150,26.41-40.79,46.55-89.67,59.88-145.26,11.26-46.94,17.7-98.74,19.17-153.95a964.43,964.43,0,0,0-5.77-132.16q-9.68-28-18.47-57.62C1620.33,2006.19,1636.28,2230.78,1537.25,2383.79Z" transform="translate(-90.35 -98.76)"/><path d="M1592.37,1864c2.58,9.56,5.37,21.82,8.08,36.28q8.8,29.63,18.47,57.62c-4.87-43.32-11.73-77.36-16.89-96.5Z" transform="translate(-90.35 -98.76)"/><path d="M1049.67,2167.24q.42,2.88.9,5.67l1,0q4.56,0,9.16-.09c-.4-2.31-.79-4.64-1.14-7Z" transform="translate(-90.35 -98.76)"/><path d="M777.08,1065.48c0,.14-.35,1.27-.89,3.29l1.06-3.25Z" transform="translate(-90.35 -98.76)"/><path d="M769,1493.36q1.56,6.77,3.29,13.46a182.32,182.32,0,0,0,27.4,28l90.64,69.63-2.43-12.87c-.1-.52-9.83-52.93-11.06-131.1-1.12-71.83,4.91-180.69,39.94-292-1.51-.78-3-1.55-4.55-2.29l.12-.31-4.77-1.51c-35.77,113-41.89,223.6-40.73,296.46.9,56.53,6.21,99.78,9.19,120L805.92,1527c-35.52-29.14-53.63-69-62.56-97.28-9.44-29.87-10.94-53.56-11-55.32,0-95.52,42.12-260,52.24-298.22a57,57,0,0,0-4.78-3.62c-1.3-.88-2.62-1.73-3.92-2.58-8.09,30.23-53.54,204.43-53.54,304.55v.23c0,.8.79,15.5,5.72,36.83,2.09,1.9,4.39,3.92,6.76,5.78C738.47,1425,763.09,1479.17,769,1493.36Z" transform="translate(-90.35 -98.76)"/><path d="M745.4,1462.73l.67.17-.2.84a217.61,217.61,0,0,0,26.37,43.08q-1.72-6.69-3.29-13.46c-5.86-14.19-30.48-68.36-34.14-76-2.37-1.86-4.67-3.88-6.76-5.78,1.49,6.42,3.34,13.43,5.68,20.86A255,255,0,0,0,745.4,1462.73Z" transform="translate(-90.35 -98.76)"/><path d="M745.4,1462.73c.15.34.31.67.47,1l.2-.84Z" transform="translate(-90.35 -98.76)"/><path d="M916.73,1168.5c.11-.36.22-.73.34-1.1l-4.77-1.5-.12.31C913.71,1167,915.22,1167.72,916.73,1168.5Z" transform="translate(-90.35 -98.76)"/><path d="M784.56,1076.2c1.32-5,2.1-7.84,2.16-8.06l-9.47-2.62-1.06,3.25-.33,1.23c1.3.85,2.62,1.7,3.92,2.58A57,57,0,0,1,784.56,1076.2Z" transform="translate(-90.35 -98.76)"/><ellipse cx="1013" cy="2074.42" rx="19.35" ry="54.97" transform="translate(-514.96 169.38) rotate(-12.49)"/><path d="M1082.4,2133.89c7.79,1.73,18.84-18.23,24.67-44.57s4.25-49.1-3.54-50.82-18.83,18.23-24.67,44.57S1074.61,2132.17,1082.4,2133.89Z" transform="translate(-90.35 -98.76)"/><path d="M1013.84,1864C936,1800.27,833.9,1694.63,785.12,1550.44c-.21,5.8-2.79,13.81-4.44,17.44,51.25,139.16,150.51,241.4,226.83,303.81,50,40.87,94.23,68.29,122.56,84.09,31,17.3,58,28.93,67.19,28.93v-4.34c-.74-2-1.49-4-2.24-5.92C1177.08,1971,1098.48,1933.16,1013.84,1864Z" transform="translate(-90.35 -98.76)"/><path d="M782,1541l-9.53,3q3.85,12.08,8.19,23.81c1.65-3.63,4.23-11.64,4.44-17.44Q783.55,1545.76,782,1541Z" transform="translate(-90.35 -98.76)"/><path d="M1195,1974.45c.75,2,1.5,3.94,2.24,5.92v-5.66A12.61,12.61,0,0,1,1195,1974.45Z" transform="translate(-90.35 -98.76)"/></g></g></svg>